<svg
  class="icon"
  viewBox="0 0 1024 1024"
  xmlns="http://www.w3.org/2000/svg"
  width="200"
  height="200"
>
  <path
    d="M512 288c-123.488 0-224 100.512-224 224s100.512 224 224 224 224-100.512 224-224-100.512-224-224-224zm0 384c-88.384 0-160-71.616-160-160s71.616-160 160-160 160 71.616 160 160-71.616 160-160 160zm0-448c17.664 0 32-14.336 32-32v-64c0-17.664-14.336-32-32-32s-32 14.336-32 32v64c0 17.664 14.336 32 32 32zm0 576c-17.664 0-32 14.336-32 32v64c0 17.664 14.336 32 32 32s32-14.336 32-32v-64c0-17.664-14.336-32-32-32zm248.864-491.68l45.248-45.248c12.512-12.512 12.512-32.736 0-45.248s-32.736-12.512-45.248 0l-45.248 45.248c-12.512 12.512-12.512 32.736 0 45.248s32.768 12.512 45.248 0zM263.136 715.68l-45.248 45.248c-12.512 12.512-12.512 32.736 0 45.248s32.736 12.512 45.248 0l45.248-45.248c12.512-12.544 12.512-32.768 0-45.248-12.512-12.512-32.768-12.544-45.248 0zM224 512c0-17.664-14.336-32-32-32h-64c-17.664 0-32 14.336-32 32s14.336 32 32 32h64c17.664 0 32-14.336 32-32zm672-32h-64c-17.664 0-32 14.336-32 32s14.336 32 32 32h64c17.664 0 32-14.336 32-32s-14.336-32-32-32zM263.072 308.32c12.512 12.512 32.768 12.512 45.248 0 12.512-12.512 12.512-32.736 0-45.248l-45.248-45.248c-12.512-12.512-32.736-12.512-45.248 0s-12.512 32.736 0 45.248l45.248 45.248zm497.856 407.296c-12.544-12.512-32.768-12.512-45.248 0-12.512 12.512-12.544 32.736 0 45.248l45.248 45.248c12.512 12.512 32.736 12.512 45.248 0s12.512-32.736 0-45.248l-45.248-45.248z"
  />
</svg>
