<svg
  viewBox="0 0 1024 1024"
  xmlns="http://www.w3.org/2000/svg"
  width="20"
  height="20"
>
  <path
    d="M757.333 128A138.667 138.667 0 0 1 896 266.667v490.666A138.667 138.667 0 0 1 757.333 896H266.667A138.667 138.667 0 0 1 128 757.333V266.667A138.667 138.667 0 0 1 266.667 128h490.666zM832 362.667H192v394.666C192 798.55 225.45 832 266.667 832h490.666A74.667 74.667 0 0 0 832 757.333V362.667zm-501.333 256a53.333 53.333 0 1 1 0 106.666 53.333 53.333 0 0 1 0-106.666zm181.333 0a53.333 53.333 0 1 1 0 106.666 53.333 53.333 0 0 1 0-106.666zM330.667 448a53.333 53.333 0 1 1 0 106.667 53.333 53.333 0 0 1 0-106.667zM512 448a53.333 53.333 0 1 1 0 106.667A53.333 53.333 0 0 1 512 448zm181.333 0a53.333 53.333 0 1 1 0 106.667 53.333 53.333 0 0 1 0-106.667zm64-256H266.667A74.667 74.667 0 0 0 192 266.667v32h640v-32A74.667 74.667 0 0 0 757.333 192z"
  />
</svg>
